<mxfile host="65bd71144e">
    <diagram id="3KwbdyD06HSjcGMrvIiw" name="Page-1">
        <mxGraphModel dx="1813" dy="2123" grid="1" gridSize="10" guides="1" tooltips="1" connect="1" arrows="1" fold="1" page="1" pageScale="1" pageWidth="850" pageHeight="1100" math="0" shadow="0">
            <root>
                <mxCell id="0"/>
                <mxCell id="1" parent="0"/>
                <mxCell id="2" value="&lt;font color=&quot;#9cdcfe&quot;&gt;dim = 4096&lt;br&gt;n_layers&amp;nbsp; =32&lt;br&gt;n_heads = 32&lt;br&gt;n_heads_kv = Optional&lt;br&gt;&lt;br&gt;multiple_of = 256&lt;br&gt;ffn_dim_multiplier = Optional&lt;br&gt;&lt;br&gt;max_batch_size = 32&amp;nbsp;&lt;br&gt;max_seq_len = 2048&lt;br&gt;&lt;/font&gt;" style="shape=document;whiteSpace=wrap;html=1;boundedLbl=1;" parent="1" vertex="1">
                    <mxGeometry x="51" y="30" width="250" height="220" as="geometry"/>
                </mxCell>
                <mxCell id="3" value="&lt;span style=&quot;color: rgb(156, 220, 254);&quot;&gt;&amp;nbsp;(hidden dim of FF layer)&lt;/span&gt;" style="shape=process;whiteSpace=wrap;html=1;backgroundOutline=1;fillColor=#333333;" parent="1" vertex="1">
                    <mxGeometry x="-80" y="100" width="170" height="40" as="geometry"/>
                </mxCell>
                <mxCell id="4" value="&lt;span style=&quot;color: rgb(156, 220, 254);&quot;&gt;For KV cache&lt;/span&gt;" style="shape=process;whiteSpace=wrap;html=1;backgroundOutline=1;fillColor=#333333;" parent="1" vertex="1">
                    <mxGeometry x="-80" y="150" width="170" height="40" as="geometry"/>
                </mxCell>
                <mxCell id="6" value="&lt;b&gt;&lt;font style=&quot;font-size: 18px;&quot;&gt;TRANSFORMER&lt;/font&gt;&lt;/b&gt;" style="shape=hexagon;perimeter=hexagonPerimeter2;whiteSpace=wrap;html=1;fixedSize=1;fontColor=#000000;fillColor=#FFFF66;" vertex="1" parent="1">
                    <mxGeometry x="20" y="360" width="180" height="100" as="geometry"/>
                </mxCell>
                <mxCell id="7" value="&lt;b&gt;&lt;font style=&quot;font-size: 18px;&quot;&gt;Model Args&lt;/font&gt;&lt;/b&gt;" style="shape=hexagon;perimeter=hexagonPerimeter2;whiteSpace=wrap;html=1;fixedSize=1;fontColor=#000000;fillColor=#FFFF66;" vertex="1" parent="1">
                    <mxGeometry x="20" y="-100" width="180" height="100" as="geometry"/>
                </mxCell>
                <mxCell id="8" value="tok_embds&lt;br&gt;&lt;i&gt;(vocab_size, dim)&lt;/i&gt;" style="rounded=0;whiteSpace=wrap;html=1;fontSize=18;fontColor=#000000;fillColor=#FFCCE6;" vertex="1" parent="1">
                    <mxGeometry x="20" y="490" width="190" height="60" as="geometry"/>
                </mxCell>
                <mxCell id="10" value="layers (n_layers times)&lt;br&gt;&lt;i&gt;&lt;b&gt;EncoderBlock&lt;/b&gt;&lt;/i&gt;" style="rounded=0;whiteSpace=wrap;html=1;fontSize=18;fontColor=#000000;fillColor=#FFCCE6;" vertex="1" parent="1">
                    <mxGeometry x="250" y="490" width="260" height="60" as="geometry"/>
                </mxCell>
                <mxCell id="12" value="norm&lt;br&gt;&lt;b&gt;RMSNorm&lt;/b&gt;&lt;br&gt;&lt;i&gt;(vocab_size, dim)&lt;/i&gt;" style="rounded=0;whiteSpace=wrap;html=1;fontSize=18;fontColor=#000000;fillColor=#FFCCE6;" vertex="1" parent="1">
                    <mxGeometry x="20" y="580" width="190" height="60" as="geometry"/>
                </mxCell>
                <mxCell id="13" value="output&amp;nbsp; - linear&lt;br&gt;&lt;i&gt;(dim, vocab_size)&lt;/i&gt;" style="rounded=0;whiteSpace=wrap;html=1;fontSize=18;fontColor=#000000;fillColor=#FFCCE6;" vertex="1" parent="1">
                    <mxGeometry x="270" y="590" width="190" height="60" as="geometry"/>
                </mxCell>
                <mxCell id="14" value="freqs_complex&lt;br&gt;&lt;b&gt;precompute_theta_pos_frequencies&lt;/b&gt;&lt;br&gt;&lt;i&gt;(seq_len, head_dim/2)&lt;/i&gt;" style="rounded=0;whiteSpace=wrap;html=1;fontSize=18;fontColor=#000000;fillColor=#FFCCE6;" vertex="1" parent="1">
                    <mxGeometry x="20" y="680" width="370" height="60" as="geometry"/>
                </mxCell>
                <mxCell id="17" value="freqs_complex&lt;br&gt;&lt;b&gt;precompute_theta_pos_frequencies&lt;/b&gt;&lt;br&gt;&lt;i&gt;(seq_len, head_dim/2)&lt;/i&gt;" style="rounded=0;whiteSpace=wrap;html=1;fontSize=18;fontColor=#000000;fillColor=#99FFFF;" vertex="1" parent="1">
                    <mxGeometry x="30" y="840" width="370" height="60" as="geometry"/>
                </mxCell>
                <mxCell id="18" value="&lt;b&gt;&lt;font style=&quot;font-size: 18px;&quot;&gt;Big module&lt;/font&gt;&lt;/b&gt;" style="shape=hexagon;perimeter=hexagonPerimeter2;whiteSpace=wrap;html=1;fixedSize=1;fontColor=#000000;fillColor=#FFFF66;" vertex="1" parent="1">
                    <mxGeometry x="301" y="-340" width="130" height="60" as="geometry"/>
                </mxCell>
                <mxCell id="19" value="Init" style="rounded=0;whiteSpace=wrap;html=1;fontSize=18;fontColor=#000000;fillColor=#FFCCE6;" vertex="1" parent="1">
                    <mxGeometry x="451" y="-335" width="130" height="50" as="geometry"/>
                </mxCell>
                <mxCell id="20" value="forward" style="rounded=0;whiteSpace=wrap;html=1;fontSize=18;fontColor=#000000;fillColor=#99FFFF;" vertex="1" parent="1">
                    <mxGeometry x="611" y="-325" width="110" height="30" as="geometry"/>
                </mxCell>
            </root>
        </mxGraphModel>
    </diagram>
</mxfile>